<?xml version="1.0" encoding="UTF-8"?>
<svg id="Capa_1" data-name="Capa 1" xmlns="http://www.w3.org/2000/svg" xmlns:xlink="http://www.w3.org/1999/xlink" viewBox="0 0 1920 1080">
  <defs>
    <style>
      .cls-1 {
        fill: #f9cdcd;
      }

      .cls-2 {
        fill: #d6cfc4;
      }

      .cls-3 {
        fill: #4fc9da;
      }

      .cls-4 {
        fill: url(#Degradado_sin_nombre_8-5);
      }

      .cls-5 {
        fill: #b5283d;
      }

      .cls-6 {
        fill: url(#Degradado_sin_nombre_8-2);
      }

      .cls-7 {
        fill: url(#Degradado_sin_nombre_8-3);
      }

      .cls-8 {
        fill: url(#Degradado_sin_nombre_8-4);
      }

      .cls-9 {
        fill: url(#Degradado_sin_nombre_8);
      }

      .cls-10 {
        stroke: #4fc9da;
      }

      .cls-10, .cls-11 {
        fill: none;
        stroke-miterlimit: 10;
        stroke-width: 3px;
      }

      .cls-11 {
        stroke: #f06445;
      }

      .cls-12 {
        fill: #f06445;
      }
    </style>
    <linearGradient id="Degradado_sin_nombre_8" data-name="Degradado sin nombre 8" x1="-486.98" y1="438.74" x2="233" y2="438.74" gradientUnits="userSpaceOnUse">
      <stop offset="0" stop-color="#f06445"/>
      <stop offset="1" stop-color="#f9cdcd"/>
    </linearGradient>
    <linearGradient id="Degradado_sin_nombre_8-2" data-name="Degradado sin nombre 8" x1="-455.98" y1="714.74" x2="264" y2="714.74" xlink:href="#Degradado_sin_nombre_8"/>
    <linearGradient id="Degradado_sin_nombre_8-3" data-name="Degradado sin nombre 8" x1="-389.98" y1="947.74" x2="330" y2="947.74" xlink:href="#Degradado_sin_nombre_8"/>
    <linearGradient id="Degradado_sin_nombre_8-4" data-name="Degradado sin nombre 8" x1="1490" y1="281.74" x2="2209.98" y2="281.74" xlink:href="#Degradado_sin_nombre_8"/>
    <linearGradient id="Degradado_sin_nombre_8-5" data-name="Degradado sin nombre 8" x1="1679" y1="419.74" x2="2398.98" y2="419.74" xlink:href="#Degradado_sin_nombre_8"/>
  </defs>
  <g>
    <path class="cls-3" d="m392.58,76.35l12.58-7.69c16.07-9.82,32.2-19.9,47.92-29.95,29.63-19.41,88.14-49.49,146.68-32.53,24.91,7.22,44.23,20.07,82.39,47.68,5.52,4,10.5,7.78,15.31,11.44,16.25,12.35,29.43,22.34,48.12,28.15-5.52-22.68-13.99-44.19-24.99-64.12-9.71-5.53-18.59-12.27-28.58-19.86-4.77-3.63-9.7-7.38-15.14-11.31-37.27-26.97-56.07-39.5-79.61-46.32-55.07-15.96-110.9,12.85-139.28,31.44-15.82,10.11-32,20.22-48.12,30.08l-12.57,7.69c-42.29,25.87-65.59,40.12-84.97,48.6-22.6,9.88-47.21,16.15-73.62,18.85-4.65,17.58-7.52,35.89-8.39,54.72,28.33-2.11,54.55-8.39,78.4-18.81,18.82-8.22,41.93-22.36,83.88-48.03Z"/>
    <path class="cls-3" d="m676.86,251.15c-37.27-26.97-56.07-39.5-79.61-46.32-55.07-15.96-110.9,12.85-139.28,31.44-15.82,10.11-32,20.22-48.12,30.08l-12.57,7.69c-42.29,25.87-65.59,40.12-84.97,48.6-5.36,2.34-10.83,4.47-16.41,6.4,11.13,12.53,23.44,23.99,36.76,34.19,15.02-8.4,33.82-19.9,59.93-35.87l12.58-7.69c16.07-9.82,32.2-19.9,47.92-29.95,29.63-19.41,88.14-49.49,146.68-32.53,24.91,7.22,44.23,20.07,82.39,47.68,5.52,4,10.5,7.78,15.31,11.44.06.05.12.09.18.14,8.42-10.77,16.01-22.23,22.69-34.26-9.6-5.51-18.41-12.18-28.31-19.71-4.77-3.63-9.7-7.38-15.14-11.31Z"/>
    <path class="cls-3" d="m597.25,265.82c-55.07-15.96-110.9,12.85-139.28,31.44-15.82,10.11-32,20.22-48.12,30.08l-12.57,7.69c-24.16,14.78-42.12,25.76-56.69,34.05,42.64,30.18,94.7,47.92,150.92,47.92,80.49,0,152.48-36.38,200.45-93.58-4.75-3.61-9.67-7.35-15.09-11.27-37.27-26.97-56.07-39.5-79.61-46.32Z"/>
    <path class="cls-3" d="m392.58,13.35l12.58-7.69c16.07-9.82,32.2-19.9,47.92-29.95,29.63-19.41,88.14-49.49,146.68-32.53,24.91,7.22,44.23,20.07,82.39,47.68,5.52,4,10.5,7.78,15.31,11.44,4.29,3.26,8.36,6.35,12.37,9.25-46.79-70.81-127.09-117.54-218.32-117.54-117.86,0-217.49,77.98-250.16,185.15,24.13-2.79,46.64-8.72,67.36-17.77,18.82-8.22,41.93-22.36,83.88-48.03Z"/>
    <path class="cls-3" d="m676.86,187.15c-37.27-26.97-56.07-39.5-79.61-46.32-55.07-15.96-110.9,12.85-139.28,31.44-15.82,10.11-32,20.22-48.12,30.08l-12.57,7.69c-42.29,25.87-65.59,40.12-84.97,48.6-16.79,7.34-34.7,12.68-53.62,16.06,8.62,16.8,19,32.54,30.9,46.99,6.53-2.15,12.91-4.58,19.12-7.3,18.82-8.22,41.93-22.36,83.88-48.03l12.58-7.69c16.07-9.82,32.2-19.9,47.92-29.95,29.63-19.41,88.14-49.49,146.68-32.53,24.91,7.22,44.23,20.07,82.39,47.68,5.52,4,10.5,7.78,15.31,11.44,9.52,7.24,17.99,13.66,27.12,18.91,7.48-14.65,13.61-30.1,18.24-46.19-20.08-6.23-33.84-16.66-50.81-29.56-4.77-3.63-9.7-7.38-15.14-11.31Z"/>
    <path class="cls-3" d="m676.86,61.15c-37.27-26.97-56.07-39.5-79.61-46.32-55.07-15.96-110.9,12.85-139.28,31.44-15.82,10.11-32,20.22-48.12,30.08l-12.57,7.69c-42.29,25.87-65.59,40.12-84.97,48.6-25.05,10.95-52.56,17.49-82.26,19.61-.01,1.09-.04,2.18-.04,3.27,0,17.21,1.68,34.03,4.85,50.31,26.59-2.43,51.28-8.57,73.84-18.43,18.82-8.22,41.93-22.36,83.88-48.03l12.58-7.69c16.07-9.82,32.2-19.9,47.92-29.95,29.63-19.41,88.14-49.49,146.68-32.53,24.91,7.22,44.23,20.07,82.39,47.68,5.52,4,10.5,7.78,15.31,11.44,17.94,13.64,32.11,24.41,54.13,29.84.46.11.92.22,1.39.32.01-.98.04-1.97.04-2.95,0-17.83-1.79-35.24-5.19-52.06-22.88-5.98-37.47-17.04-55.81-30.98-4.77-3.63-9.7-7.38-15.14-11.31Z"/>
    <path class="cls-3" d="m692,135.46c-4.77-3.63-9.7-7.38-15.14-11.31-37.27-26.97-56.07-39.5-79.61-46.32-55.07-15.96-110.9,12.85-139.28,31.44-15.82,10.11-32,20.22-48.12,30.08l-12.57,7.69c-42.29,25.87-65.59,40.12-84.97,48.6-23.16,10.12-48.42,16.48-75.58,19.06,4.16,17.98,10.19,35.25,17.85,51.6,19.17-3.22,37.24-8.52,54.12-15.9,18.82-8.22,41.93-22.36,83.88-48.03l12.58-7.69c16.07-9.82,32.2-19.9,47.92-29.95,29.63-19.41,88.14-49.49,146.68-32.53,24.91,7.22,44.23,20.07,82.39,47.68,5.52,4,10.5,7.78,15.31,11.44,16.13,12.26,29.23,22.19,47.7,28.02,4.18-16.65,6.76-33.94,7.57-51.68-1.1-.24-2.2-.49-3.29-.76-23.83-5.87-38.65-17.14-57.42-31.41Z"/>
  </g>
  <g>
    <path class="cls-3" d="m321.84,1053.97l9.62-5.88c12.29-7.51,24.62-15.22,36.65-22.91,22.66-14.85,67.41-37.85,112.18-24.88,19.05,5.52,33.83,15.35,63.01,36.46,4.22,3.06,8.03,5.95,11.71,8.75,12.43,9.45,22.51,17.09,36.81,21.53-4.22-17.34-10.7-33.8-19.11-49.04-7.42-4.23-14.22-9.38-21.86-15.19-3.65-2.77-7.42-5.64-11.58-8.65-28.51-20.63-42.88-30.21-60.89-35.43-42.12-12.2-84.82,9.83-106.52,24.05-12.1,7.73-24.47,15.47-36.8,23l-9.62,5.88c-32.35,19.79-50.16,30.69-64.99,37.17-17.28,7.55-36.11,12.35-56.3,14.42-3.56,13.45-5.75,27.45-6.42,41.85,21.67-1.62,41.72-6.42,59.96-14.39,14.39-6.29,32.07-17.1,64.15-36.73Z"/>
    <path class="cls-3" d="m321.84,1005.78l9.62-5.88c12.29-7.51,24.62-15.22,36.65-22.91,22.66-14.85,67.41-37.85,112.18-24.88,19.05,5.52,33.83,15.35,63.01,36.46,4.22,3.06,8.03,5.95,11.71,8.75,3.28,2.49,6.39,4.86,9.46,7.07-35.79-54.16-97.2-89.89-166.97-89.89-90.14,0-166.34,59.64-191.33,141.6,18.46-2.13,35.67-6.67,51.52-13.59,14.39-6.29,32.07-17.1,64.15-36.73Z"/>
    <path class="cls-3" d="m539.27,1042.34c-28.51-20.63-42.88-30.21-60.89-35.43-42.12-12.2-84.82,9.83-106.52,24.05-12.1,7.73-24.47,15.47-36.8,23l-9.62,5.88c-32.35,19.79-50.16,30.69-64.99,37.17-19.16,8.37-40.2,13.38-62.91,15-.01.83-.03,1.66-.03,2.5,0,13.16,1.29,26.02,3.71,38.48,20.34-1.86,39.22-6.56,56.48-14.1,14.39-6.29,32.07-17.1,64.15-36.73l9.62-5.88c12.29-7.51,24.62-15.22,36.65-22.91,22.66-14.85,67.41-37.85,112.18-24.88,19.05,5.52,33.83,15.35,63.01,36.46,4.22,3.06,8.03,5.95,11.71,8.75,13.72,10.43,24.56,18.67,41.4,22.82.35.09.71.16,1.06.25,0-.75.03-1.5.03-2.26,0-13.63-1.37-26.95-3.97-39.82-17.5-4.57-28.66-13.03-42.68-23.7-3.65-2.77-7.42-5.64-11.58-8.65Z"/>
    <path class="cls-3" d="m550.85,1099.17c-3.65-2.77-7.42-5.64-11.58-8.65-28.51-20.63-42.88-30.21-60.89-35.43-42.12-12.2-84.82,9.83-106.52,24.05-12.1,7.73-24.47,15.47-36.8,23l-9.62,5.88c-32.35,19.79-50.16,30.69-64.99,37.17-17.71,7.74-37.04,12.6-57.8,14.57,3.18,13.75,7.79,26.96,13.65,39.46,14.66-2.46,28.48-6.52,41.39-12.16,14.39-6.29,32.07-17.1,64.15-36.73l9.62-5.88c12.29-7.51,24.62-15.22,36.65-22.91,22.66-14.85,67.41-37.85,112.18-24.88,19.05,5.52,33.83,15.35,63.01,36.46,4.22,3.06,8.03,5.95,11.71,8.75,12.33,9.38,22.35,16.97,36.48,21.43,3.19-12.74,5.17-25.95,5.79-39.53-.84-.18-1.68-.37-2.51-.58-18.22-4.49-29.56-13.11-43.92-24.03Z"/>
  </g>
  <g>
    <path class="cls-3" d="m1760.62,31.99l9.14-5.59c11.68-7.14,23.39-14.46,34.82-21.76,21.53-14.1,64.04-35.96,106.57-23.64,18.1,5.24,32.14,14.58,59.86,34.64,4.01,2.9,7.63,5.65,11.12,8.31,11.81,8.98,21.38,16.23,34.97,20.45-4.01-16.48-10.16-32.11-18.16-46.59-7.05-4.02-13.51-8.91-20.77-14.43-3.47-2.63-7.05-5.36-11-8.22-27.08-19.59-40.74-28.7-57.85-33.66-40.01-11.59-80.58,9.34-101.2,22.84-11.5,7.35-23.25,14.69-34.96,21.85l-9.14,5.59c-30.73,18.8-47.65,29.15-61.74,35.31-16.42,7.17-34.3,11.74-53.49,13.69-3.38,12.77-5.46,26.07-6.1,39.75,20.59-1.54,39.64-6.1,56.96-13.67,13.67-5.98,30.46-16.25,60.94-34.89Z"/>
    <path class="cls-3" d="m1967.18,158.99c-27.08-19.59-40.74-28.7-57.85-33.66-40.01-11.59-80.58,9.34-101.2,22.84-11.5,7.35-23.25,14.69-34.96,21.85l-9.14,5.59c-30.73,18.8-47.65,29.15-61.74,35.31-3.89,1.7-7.87,3.24-11.92,4.65,8.08,9.11,17.03,17.43,26.71,24.84,10.91-6.1,24.58-14.46,43.54-26.06l9.14-5.59c11.68-7.14,23.39-14.46,34.82-21.76,21.53-14.1,64.04-35.96,106.57-23.64,18.1,5.24,32.14,14.58,59.86,34.64,4.01,2.9,7.63,5.65,11.12,8.31.04.03.09.07.13.1,6.12-7.83,11.63-16.15,16.48-24.89-6.98-4-13.38-8.85-20.57-14.32-3.47-2.63-7.05-5.36-11-8.22Z"/>
    <path class="cls-3" d="m1909.33,169.66c-40.01-11.59-80.58,9.34-101.2,22.84-11.5,7.35-23.25,14.69-34.96,21.85l-9.14,5.59c-17.55,10.74-30.6,18.72-41.19,24.74,30.98,21.93,68.81,34.82,109.65,34.82,58.49,0,110.79-26.43,145.64-67.99-3.45-2.63-7.03-5.34-10.96-8.19-27.08-19.59-40.74-28.7-57.85-33.66Z"/>
    <path class="cls-3" d="m1760.62-13.78l9.14-5.59c11.68-7.14,23.39-14.46,34.82-21.76,21.53-14.1,64.04-35.96,106.57-23.64,18.1,5.24,32.14,14.58,59.86,34.64,4.01,2.9,7.63,5.65,11.12,8.31,3.11,2.37,6.07,4.61,8.99,6.72-34-51.45-92.34-85.4-158.62-85.4-85.63,0-158.03,56.66-181.76,134.52,17.53-2.02,33.89-6.33,48.94-12.91,13.67-5.98,30.46-16.25,60.94-34.89Z"/>
    <path class="cls-3" d="m1967.18,112.49c-27.08-19.59-40.74-28.7-57.85-33.66-40.01-11.59-80.58,9.34-101.2,22.84-11.5,7.35-23.25,14.69-34.96,21.85l-9.14,5.59c-30.73,18.8-47.65,29.15-61.74,35.31-12.2,5.33-25.21,9.21-38.96,11.67,6.26,12.21,13.8,23.65,22.45,34.14,4.74-1.56,9.38-3.33,13.89-5.3,13.67-5.98,30.46-16.25,60.94-34.89l9.14-5.59c11.68-7.14,23.39-14.46,34.82-21.76,21.53-14.1,64.04-35.96,106.57-23.64,18.1,5.24,32.14,14.58,59.86,34.64,4.01,2.9,7.63,5.65,11.12,8.31,6.92,5.26,13.07,9.92,19.7,13.74,5.43-10.65,9.89-21.87,13.25-33.56-14.59-4.52-24.59-12.1-36.91-21.47-3.47-2.63-7.05-5.36-11-8.22Z"/>
    <path class="cls-3" d="m1967.18,20.94c-27.08-19.59-40.74-28.7-57.85-33.66-40.01-11.59-80.58,9.34-101.2,22.84-11.5,7.35-23.25,14.69-34.96,21.85l-9.14,5.59c-30.73,18.8-47.65,29.15-61.74,35.31-18.2,7.95-38.19,12.71-59.77,14.25,0,.79-.03,1.58-.03,2.37,0,12.5,1.22,24.72,3.53,36.55,19.32-1.76,37.26-6.23,53.65-13.39,13.67-5.98,30.46-16.25,60.94-34.89l9.14-5.59c11.68-7.14,23.39-14.46,34.82-21.76,21.53-14.1,64.04-35.96,106.57-23.64,18.1,5.24,32.14,14.58,59.86,34.64,4.01,2.9,7.63,5.65,11.12,8.31,13.04,9.91,23.33,17.74,39.33,21.68.33.08.67.16,1.01.23,0-.72.03-1.43.03-2.15,0-12.95-1.3-25.6-3.77-37.83-16.62-4.34-27.23-12.38-40.55-22.51-3.47-2.63-7.05-5.36-11-8.22Z"/>
    <path class="cls-3" d="m1978.18,74.94c-3.47-2.63-7.05-5.36-11-8.22-27.08-19.59-40.74-28.7-57.85-33.66-40.01-11.59-80.58,9.34-101.2,22.84-11.5,7.35-23.25,14.69-34.96,21.85l-9.14,5.59c-30.73,18.8-47.65,29.15-61.74,35.31-16.83,7.35-35.18,11.97-54.91,13.85,3.02,13.07,7.4,25.61,12.97,37.49,13.93-2.34,27.06-6.19,39.32-11.55,13.67-5.98,30.46-16.25,60.94-34.89l9.14-5.59c11.68-7.14,23.39-14.46,34.82-21.76,21.53-14.1,64.04-35.96,106.57-23.64,18.1,5.24,32.14,14.58,59.86,34.64,4.01,2.9,7.63,5.65,11.12,8.31,11.72,8.91,21.24,16.12,34.66,20.36,3.03-12.1,4.91-24.66,5.5-37.55-.8-.17-1.6-.36-2.39-.55-17.31-4.27-28.08-12.46-41.72-22.82Z"/>
  </g>
  <g>
    <path class="cls-11" d="m715-84.2c90.38,295.07,172.34,308.36,195.5,308.5,62.4.38,161.11-91.76,213-158,24.46-31.23,56.1-79.14,101-79,24.64.08,43.12,14.6,50,20,105.1,82.56,59.91,380.86,198,478,85.92,60.44,207.06,17.88,228,10,109.22-41.1,158.54-141.95,184-194,31.72-64.85,42.13-124.13,46-162"/>
    <path class="cls-11" d="m745.22-84.2c90.38,295.07,172.34,308.36,195.5,308.5,62.4.38,161.11-91.76,213-158,24.46-31.23,56.1-79.14,101-79,24.64.08,43.12,14.6,50,20,105.1,82.56,59.91,380.86,198,478,85.92,60.44,207.06,17.88,228,10,109.22-41.1,158.54-141.95,184-194,31.72-64.85,42.13-124.13,46-162"/>
    <path class="cls-11" d="m775.44-84.2c90.38,295.07,172.34,308.36,195.5,308.5,62.4.38,161.11-91.76,213-158,24.46-31.23,56.1-79.14,101-79,24.64.08,43.12,14.6,50,20,105.1,82.56,59.91,380.86,198,478,85.92,60.44,207.06,17.88,228,10,109.22-41.1,158.54-141.95,184-194,31.72-64.85,42.13-124.13,46-162"/>
    <path class="cls-11" d="m805.67-84.2c90.38,295.07,172.34,308.36,195.5,308.5,62.4.38,161.11-91.76,213-158,24.46-31.23,56.1-79.14,101-79,24.64.08,43.12,14.6,50,20,105.1,82.56,59.91,380.86,198,478,85.92,60.44,207.06,17.88,228,10,109.22-41.1,158.54-141.95,184-194,31.72-64.85,42.13-124.13,46-162"/>
    <path class="cls-11" d="m835.89-84.2c90.38,295.07,172.34,308.36,195.5,308.5,62.4.38,161.11-91.76,213-158,24.46-31.23,56.1-79.14,101-79,24.64.08,43.12,14.6,50,20,105.1,82.56,59.91,380.86,198,478,85.92,60.44,207.06,17.88,228,10,109.22-41.1,158.54-141.95,184-194,31.72-64.85,42.13-124.13,46-162"/>
    <path class="cls-11" d="m866.11-84.2c90.38,295.07,172.34,308.36,195.5,308.5,62.4.38,161.11-91.76,213-158,24.46-31.23,56.1-79.14,101-79,24.64.08,43.12,14.6,50,20,105.1,82.56,59.91,380.86,198,478,85.92,60.44,207.06,17.88,228,10,109.22-41.1,158.54-141.95,184-194,31.72-64.85,42.13-124.13,46-162"/>
    <path class="cls-11" d="m896.33-84.2c90.38,295.07,172.34,308.36,195.5,308.5,62.4.38,161.11-91.76,213-158,24.46-31.23,56.1-79.14,101-79,24.64.08,43.12,14.6,50,20,105.1,82.56,59.91,380.86,198,478,85.92,60.44,207.06,17.88,228,10,109.22-41.1,158.54-141.95,184-194,31.72-64.85,42.13-124.13,46-162"/>
    <path class="cls-11" d="m926.56-84.2c90.38,295.07,172.34,308.36,195.5,308.5,62.4.38,161.11-91.76,213-158,24.46-31.23,56.1-79.14,101-79,24.64.08,43.12,14.6,50,20,105.1,82.56,59.91,380.86,198,478,85.92,60.44,207.06,17.88,228,10,109.22-41.1,158.54-141.95,184-194,31.72-64.85,42.13-124.13,46-162"/>
    <path class="cls-11" d="m956.78-84.2c90.38,295.07,172.34,308.36,195.5,308.5,62.4.38,161.11-91.76,213-158,24.46-31.23,56.1-79.14,101-79,24.64.08,43.12,14.6,50,20,105.1,82.56,59.91,380.86,198,478,85.92,60.44,207.06,17.88,228,10,109.22-41.1,158.54-141.95,184-194,31.72-64.85,42.13-124.13,46-162"/>
    <path class="cls-11" d="m987-84.2c90.38,295.07,172.34,308.36,195.5,308.5,62.4.38,161.11-91.76,213-158,24.46-31.23,56.1-79.14,101-79,24.64.08,43.12,14.6,50,20,105.1,82.56,59.91,380.86,198,478,85.92,60.44,207.06,17.88,228,10,109.22-41.1,158.54-141.95,184-194,31.72-64.85,42.13-124.13,46-162"/>
  </g>
  <g>
    <path class="cls-10" d="m2438.16,384.32c-299.54-74.25-353.08-10.8-365.12,8.99-32.42,53.31-4.17,185.36,25.95,263.93,14.2,37.04,39.02,88.82,15.8,127.25-12.74,21.09-34.7,29.47-42.87,32.59-124.86,47.67-357.43-144.51-511.77-76.05-96.02,42.59-121.83,168.38-125.84,190.39-20.93,114.8,40.2,208.98,71.74,257.58,39.3,60.55,84.78,99.97,115.27,122.77"/>
    <path class="cls-10" d="m2422.62,410.24c-299.54-74.25-353.08-10.8-365.12,8.99-32.42,53.31-4.17,185.36,25.95,263.93,14.2,37.04,39.02,88.82,15.8,127.25-12.74,21.09-34.7,29.47-42.87,32.59-124.86,47.67-357.43-144.51-511.77-76.05-96.02,42.59-121.83,168.38-125.84,190.39-20.93,114.8,40.2,208.98,71.74,257.58,39.3,60.55,84.78,99.97,115.27,122.77"/>
    <path class="cls-10" d="m2407.07,436.16c-299.54-74.25-353.08-10.8-365.12,8.99-32.42,53.31-4.17,185.36,25.95,263.93,14.2,37.04,39.02,88.82,15.8,127.25-12.74,21.09-34.7,29.47-42.87,32.59-124.86,47.67-357.43-144.51-511.77-76.05-96.02,42.59-121.83,168.38-125.84,190.39-20.93,114.8,40.2,208.98,71.74,257.58,39.3,60.55,84.78,99.97,115.27,122.77"/>
    <path class="cls-10" d="m2391.53,462.08c-299.54-74.25-353.08-10.8-365.12,8.99-32.42,53.31-4.17,185.36,25.95,263.93,14.2,37.04,39.02,88.82,15.8,127.25-12.74,21.09-34.7,29.47-42.87,32.59-124.86,47.67-357.43-144.51-511.77-76.05-96.02,42.59-121.83,168.38-125.84,190.39-20.93,114.8,40.2,208.98,71.74,257.58,39.3,60.55,84.78,99.97,115.27,122.77"/>
    <path class="cls-10" d="m2375.98,488c-299.54-74.25-353.08-10.8-365.12,8.99-32.42,53.31-4.17,185.36,25.95,263.93,14.2,37.04,39.02,88.82,15.8,127.25-12.74,21.09-34.7,29.47-42.87,32.59-124.86,47.67-357.43-144.51-511.77-76.05-96.02,42.59-121.83,168.38-125.84,190.39-20.93,114.8,40.2,208.98,71.74,257.58,39.3,60.55,84.78,99.97,115.27,122.77"/>
    <path class="cls-10" d="m2360.44,513.92c-299.54-74.25-353.08-10.8-365.12,8.99-32.42,53.31-4.17,185.36,25.95,263.93,14.2,37.04,39.02,88.82,15.8,127.25-12.74,21.09-34.7,29.47-42.87,32.59-124.86,47.67-357.43-144.51-511.77-76.05-96.02,42.59-121.83,168.38-125.84,190.39-20.93,114.8,40.2,208.98,71.74,257.58,39.3,60.55,84.78,99.97,115.27,122.77"/>
    <path class="cls-10" d="m2344.9,539.83c-299.54-74.25-353.08-10.8-365.12,8.99-32.42,53.31-4.17,185.36,25.95,263.93,14.2,37.04,39.02,88.82,15.8,127.25-12.74,21.09-34.7,29.47-42.87,32.59-124.86,47.67-357.43-144.51-511.77-76.05-96.02,42.59-121.83,168.38-125.84,190.39-20.93,114.8,40.2,208.98,71.74,257.58,39.3,60.55,84.78,99.97,115.27,122.77"/>
    <path class="cls-10" d="m2329.35,565.75c-299.54-74.25-353.08-10.8-365.12,8.99-32.42,53.31-4.17,185.36,25.95,263.93,14.2,37.04,39.02,88.82,15.8,127.25-12.74,21.09-34.7,29.47-42.87,32.59-124.86,47.67-357.43-144.51-511.77-76.05-96.02,42.59-121.83,168.38-125.84,190.39-20.93,114.8,40.2,208.98,71.74,257.58,39.3,60.55,84.78,99.97,115.27,122.77"/>
    <path class="cls-10" d="m2313.81,591.67c-299.54-74.25-353.08-10.8-365.12,8.99-32.42,53.31-4.17,185.36,25.95,263.93,14.2,37.04,39.02,88.82,15.8,127.25-12.74,21.09-34.7,29.47-42.87,32.59-124.86,47.67-357.43-144.51-511.77-76.05-96.02,42.59-121.83,168.38-125.84,190.39-20.93,114.8,40.2,208.98,71.74,257.58,39.3,60.55,84.78,99.97,115.27,122.77"/>
    <path class="cls-10" d="m2298.26,617.59c-299.54-74.25-353.08-10.8-365.12,8.99-32.42,53.31-4.17,185.36,25.95,263.93,14.2,37.04,39.02,88.82,15.8,127.25-12.74,21.09-34.7,29.47-42.87,32.59-124.86,47.67-357.43-144.51-511.77-76.05-96.02,42.59-121.83,168.38-125.84,190.39-20.93,114.8,40.2,208.98,71.74,257.58,39.3,60.55,84.78,99.97,115.27,122.77"/>
  </g>
  <path class="cls-12" d="m1226.5,697.5c26.89-45.93,125.76-51.92,192-15,54.99,30.64,42.29,65.66,110,117,62.54,47.42,92.12,31.76,122,72,33.15,44.64,43.61,127.01-3,176-41.92,44.06-120.29,50.9-164,19-75.48-55.09-26.46-210.28-95-238-17.38-7.03-19.53,3.36-57-4-20.02-3.93-90.31-17.73-108-69-1.88-5.44-11.02-34.06,3-58Z"/>
  <path class="cls-12" d="m875.5,634.42c-17.19,74.97-150.91,126.04-258.23,103.81-89.08-18.44-86.74-72.22-202.33-113.69-106.76-38.3-140.77-3.91-199.39-46.45-65.03-47.19-115.12-156.24-72.07-243.96,38.72-78.9,143.82-122.27,217.89-97.21,127.92,43.28,127.53,278.48,234.03,287.02,27.01,2.17,25.47-13.08,80.32-19.17,29.3-3.25,132.19-14.66,178.78,48.37,4.94,6.69,29.94,42.2,20.98,81.27Z"/>
  <polygon class="cls-9" points="233 57 -486.98 776.98 -443.48 820.48 233 144 233 57"/>
  <polygon class="cls-6" points="264 333 -455.98 1052.98 -412.48 1096.48 264 420 264 333"/>
  <polygon class="cls-7" points="330 566 -389.98 1285.98 -346.48 1329.48 330 653 330 566"/>
  <polygon class="cls-3" points="1103 243.48 1822.98 -476.5 1779.48 -520 1103 156.48 1103 243.48"/>
  <polygon class="cls-8" points="1490 663.48 2209.98 -56.5 2166.48 -100 1490 576.48 1490 663.48"/>
  <polygon class="cls-4" points="1679 801.48 2398.98 81.5 2355.48 38 1679 714.48 1679 801.48"/>
  <polygon class="cls-1" points="916 777.01 666 1027.01 666 1085.95 916 835.95 916 777.01"/>
  <circle class="cls-2" cx="120" cy="700" r="26"/>
  <circle class="cls-2" cx="772" cy="292" r="26"/>
  <circle class="cls-2" cx="1232" cy="256" r="26"/>
  <circle class="cls-2" cx="1290" cy="560" r="26"/>
  <circle class="cls-2" cx="1186" cy="1000" r="26"/>
  <circle class="cls-2" cx="791" cy="1009" r="26"/>
  <circle class="cls-2" cx="602" cy="957" r="26"/>
  <circle class="cls-2" cx="1339" cy="123" r="26"/>
  <rect class="cls-5" x="1180.78" y="1033.99" width="155" height="49.59" rx="24.79" ry="24.79" transform="translate(-380.13 1199.85) rotate(-45)"/>
</svg>