<?xml version="1.0" encoding="UTF-8"?>
<svg id="Capa_2" data-name="Capa 2" xmlns="http://www.w3.org/2000/svg" viewBox="0 0 1297.91 250">
  <defs>
    <style>
      .cls-1 {
        fill: #fff;
      }

      .cls-2, .cls-3 {
        fill: #4fc9da;
      }

      .cls-3 {
        font-family: MontserratRoman-Black, Montserrat;
        font-size: 150px;
        font-variation-settings: 'wght' 900;
        font-weight: 800;
      }

      .cls-4 {
        fill: #f06445;
      }
    </style>
  </defs>
  <g id="Capa_1-2" data-name="Capa 1">
    <g>
      <polygon class="cls-4" points="35.78 163.78 164.1 34.82 149.2 19.92 20.88 148.88 35.78 163.78"/>
      <polygon class="cls-4" points="146.05 17.42 128.64 0 0 128.64 17.73 146.37 146.05 17.42"/>
      <polygon class="cls-4" points="38.28 166.28 56.33 184.33 184.97 55.69 166.6 37.33 38.28 166.28"/>
      <polygon class="cls-2" points="101.45 229.45 229.77 100.49 214.87 85.59 86.55 214.55 101.45 229.45"/>
      <polygon class="cls-2" points="212.36 83.08 194.94 65.67 66.31 194.31 84.04 212.04 212.36 83.08"/>
      <polygon class="cls-2" points="103.95 231.95 122 250 250.64 121.36 232.27 103 103.95 231.95"/>
    </g>
    <g>
      <path class="cls-1" d="m157.21,32.69h-1.39c-20.8,9.24-41.59,18.49-62.39,27.73v40.55c.17.09.34.18.51.27,3.17,1.71,6.34,3.41,9.51,5.12,15.21-6.72,30.43-13.44,45.64-20.16-3.28-1.7-6.57-3.4-9.85-5.1,5.99-2.66,11.98-5.32,17.96-7.98v-40.44Z"/>
      <path class="cls-1" d="m157.21,90.15h-1.39c-20.8,9.24-41.59,18.49-62.39,27.73v40.55c.17.09.34.18.51.27,3.17,1.71,6.34,3.41,9.51,5.12,15.21-6.72,30.43-13.44,45.64-20.16-3.28-1.7-6.57-3.4-9.85-5.1,5.99-2.66,11.98-5.32,17.96-7.98v-40.44Z"/>
      <path class="cls-1" d="m93.43,100.97v.5l.51-.23c-.17-.09-.34-.18-.51-.27Z"/>
      <path class="cls-1" d="m93.43,175.95v41.36c21.26-9.45,42.52-18.9,63.78-28.34v-41.36c-21.26,9.45-42.52,18.9-63.78,28.34Z"/>
    </g>
    <text class="cls-3" transform="translate(257.68 164.03)"><tspan x="0" y="0">INGRESANTE</tspan></text>
  </g>
</svg>